<svg width="18" height="18" viewBox="0 0 18 18" fill="none" xmlns="http://www.w3.org/2000/svg">
<path d="M17.3568 0H10.2856C10.1151 3.76664e-05 9.95167 0.0677995 9.83114 0.18837L0.188544 9.83097C-0.0626533 10.0819 -0.0628792 10.4889 0.188054 10.7401C0.187904 10.7399 0.188205 10.7402 0.188054 10.7401L7.25977 17.8118C7.51082 18.0627 7.91773 18.0627 8.16874 17.8118L17.8113 8.1692C17.9321 8.04852 17.9998 7.88478 17.9997 7.71408V0.642852C17.9997 0.287809 17.7119 0 17.3568 0ZM13.4998 5.78556C12.7898 5.78556 12.2141 5.20994 12.2141 4.49989C12.2141 3.78984 12.7898 3.21422 13.4998 3.21422C14.2099 3.21422 14.7855 3.78984 14.7855 4.49989C14.7855 5.20994 14.2099 5.78556 13.4998 5.78556Z" fill="#4366A9"/>
</svg>
