<svg width="18" height="18" viewBox="0 0 18 18" fill="none" xmlns="http://www.w3.org/2000/svg">
<path d="M9 0C4.02991 0 0 4.02991 0 9C0 13.9701 4.02991 18 9 18C13.9701 18 18 13.9701 18 9C18 4.02991 13.9701 0 9 0ZM12.5458 11.7663L11.9712 12.5498C11.9587 12.5668 11.943 12.5813 11.9249 12.5922C11.9068 12.6032 11.8867 12.6104 11.8658 12.6136C11.8449 12.6168 11.8236 12.6158 11.803 12.6107C11.7825 12.6056 11.7632 12.5965 11.7462 12.5839L8.42344 10.1612C8.40274 10.1463 8.38591 10.1267 8.37437 10.104C8.36284 10.0812 8.35693 10.0561 8.35714 10.0306V4.5C8.35714 4.41161 8.42946 4.33929 8.51786 4.33929H9.48415C9.57254 4.33929 9.64487 4.41161 9.64487 4.5V9.4721L12.5096 11.5433C12.5819 11.5935 12.598 11.694 12.5458 11.7663Z" fill="#4366A9"/>
</svg>
